PathFileType	4	(X/Y/Z)	D:\TRACE\spotREDO_2-26-24\spot_justArm_Motion_3_5-platform.trc
DataRate	CameraRate	NumFrames	NumMarkers	Units	OrigDataRate	OrigDataStartFrame	OrigNumFrames
100.00	100.00	      66	5	mm	100.00	2626	      7000
Frame#	Time	Left_Front			Right_Front			Left_Aft			Right_Aft			Post			
		X1	Y1	Z1	X2	Y2	Z2	X3	Y3	Z3	X4	Y4	Z4	X5	Y5	Z5	

2626	26.250	-679.43011	12.62488	-571.15405	735.42517	19.08893	-486.53174	-750.45660	-12.07464	647.87555	818.89056	-5.63839	652.19409	29.28098	650.65448	-960.39160	
2627	26.260	-679.59589	13.20533	-570.90527	735.24280	19.91371	-486.36865	-750.54645	-12.94009	647.97351	818.64264	-6.18467	652.32849	29.15426	651.92975	-959.43170	
2628	26.270	-679.76599	13.71853	-570.72070	735.10925	20.34194	-486.13309	-750.80536	-13.55818	648.07697	818.64111	-6.99588	652.51685	29.21919	652.88483	-958.38116	
2629	26.280	-679.88306	14.44851	-570.62427	734.88446	20.96589	-486.02972	-750.72491	-14.27436	648.30426	818.51044	-7.99793	652.44537	29.11633	654.32202	-957.15686	
2630	26.290	-680.14972	15.36058	-570.34143	734.52234	21.60077	-486.00635	-751.18976	-15.21461	648.26959	818.10571	-8.53239	652.53021	28.72165	655.38953	-956.51111	
2631	26.300	-680.31012	15.95356	-570.20538	734.20789	22.06464	-485.82297	-751.32123	-15.70989	648.48010	817.75793	-9.25032	652.69928	28.83827	656.39697	-955.19952	
2632	26.310	-680.54590	16.48977	-570.03156	734.29236	22.65674	-485.42151	-751.37213	-16.47250	648.70251	817.72302	-9.77583	653.11743	28.54724	657.44574	-954.52313	
2633	26.320	-680.98804	17.37405	-569.76917	733.82446	23.24264	-485.35965	-751.92072	-17.31462	648.95807	817.42859	-10.61889	653.32184	28.28343	658.38531	-953.65192	
2634	26.330	-681.02515	17.86722	-569.54724	733.60431	23.76821	-485.04974	-752.12958	-17.77459	649.13983	817.05182	-11.12575	653.30591	28.17474	659.45227	-952.73743	
2635	26.340	-681.24097	18.21289	-569.37109	733.42889	24.23413	-484.99408	-752.28693	-18.18106	649.23639	816.90747	-11.74766	653.43292	27.88994	660.56464	-952.07562	
2636	26.350	-681.64301	18.90237	-569.19177	732.98041	25.02194	-484.97983	-752.54388	-19.21025	649.39740	816.86481	-12.48477	653.83868	27.68682	661.61255	-951.38733	
2637	26.360	-681.86487	19.77855	-569.06158	732.93231	25.31625	-484.64505	-752.72870	-19.94000	649.66986	816.66663	-12.99103	653.91174	27.53484	662.43909	-950.69366	
2638	26.370	-681.98535	20.21755	-568.88580	732.71234	25.89451	-484.34122	-752.91473	-20.22922	649.66223	816.31647	-13.88046	654.04724	27.15617	663.46362	-949.88306	
2639	26.380	-682.13861	20.72465	-568.77112	732.56873	26.40673	-484.14841	-753.19049	-20.90411	649.74420	815.75598	-14.60927	654.12189	26.80950	664.44965	-949.02734	
2640	26.390	-682.32434	21.24159	-568.52582	732.49091	26.92817	-483.88364	-753.44379	-21.57043	649.86432	815.86133	-15.02401	654.28577	26.66783	665.35083	-948.26892	
2641	26.400	-682.63257	21.96321	-568.30438	732.37317	27.40272	-483.77936	-753.54559	-22.25532	649.99878	815.89368	-15.43521	654.49493	26.69087	666.59595	-947.16400	
2642	26.410	-683.02777	22.62388	-568.12018	732.11438	27.79127	-483.83920	-753.59839	-22.92971	650.18707	815.45386	-16.21979	654.80609	26.70932	667.23920	-946.47101	
2643	26.420	-683.05347	23.03599	-567.99823	731.69623	28.31721	-483.58786	-753.90497	-23.37328	650.30273	815.10297	-16.94904	654.67493	26.44888	668.21777	-945.27271	
2644	26.430	-683.38995	23.66161	-567.85175	731.30072	28.87012	-483.63550	-754.14410	-23.82498	650.34601	815.04700	-17.46504	654.65637	25.90106	669.05511	-944.59583	
2645	26.440	-683.64746	24.22580	-567.67999	730.87714	29.29792	-483.42160	-754.27606	-24.56875	650.49481	814.75690	-17.80921	654.88568	25.49776	669.92676	-943.81598	
2646	26.450	-683.86169	24.65987	-567.48120	730.60760	29.73824	-483.07089	-754.57385	-24.97620	650.67932	814.56702	-18.48395	655.28162	25.47548	670.75165	-943.04272	
2647	26.460	-684.07800	25.02613	-567.31702	730.61505	29.94771	-482.88657	-754.71649	-25.42114	650.87097	814.63574	-19.07747	655.32404	25.23745	671.62720	-942.43585	
2648	26.470	-684.34314	25.41491	-567.16205	730.45209	30.60741	-482.81201	-755.02759	-26.00503	650.96198	814.33838	-19.52271	655.33252	24.96412	672.40167	-941.88422	
2649	26.480	-684.58295	25.88638	-567.09332	730.31122	30.99929	-482.60364	-755.22974	-26.47969	651.01947	814.13934	-20.11572	655.16205	24.76958	672.89441	-941.58160	
2650	26.490	-684.73645	26.57438	-567.02917	730.11835	31.27505	-482.47888	-755.41284	-26.93253	651.15607	813.85565	-20.74424	655.59045	24.45304	673.85168	-940.95770	
2651	26.500	-684.87408	27.06950	-566.98431	730.03973	31.63951	-482.27756	-755.50244	-27.51453	651.25287	813.52246	-21.05331	655.58282	24.50199	674.60663	-940.54889	
2652	26.510	-685.06921	27.52457	-566.71869	729.84955	32.06751	-482.11185	-755.83588	-27.94987	651.33240	813.38586	-21.45280	655.71802	24.30646	675.28442	-939.78809	
2653	26.520	-685.17035	27.86209	-566.59399	729.59808	32.48373	-482.20599	-756.17175	-28.47195	651.43939	813.13336	-21.89674	655.66052	24.25482	676.06744	-939.15521	
2654	26.530	-685.51593	28.26066	-566.52722	729.36810	32.81837	-482.00186	-756.41791	-28.64181	651.63245	813.11182	-22.48027	655.82660	23.93651	676.77075	-938.62109	
2655	26.540	-685.79279	28.81264	-566.55579	729.17493	33.22503	-481.94464	-756.61133	-29.17017	651.57562	812.85046	-23.22763	655.84784	23.58402	677.33331	-937.96936	
2656	26.550	-686.06329	29.24845	-566.12195	728.89508	33.47418	-481.84119	-756.58490	-29.89059	651.71094	812.69550	-23.48003	655.90375	23.38653	678.09448	-936.95770	
2657	26.560	-686.18176	29.55652	-565.86920	728.62958	33.85375	-481.67767	-756.68225	-30.30540	651.78992	812.51025	-23.96541	655.86609	23.22988	678.80682	-936.45197	
2658	26.570	-686.21271	29.87584	-565.71222	728.52441	34.23143	-481.38553	-756.97467	-30.61839	651.84387	812.52100	-24.13218	655.97424	22.92880	679.44550	-935.82104	
2659	26.580	-686.35559	30.11773	-565.64001	728.51819	34.38357	-481.20724	-757.20630	-30.98940	651.96600	812.10052	-24.54145	655.98969	22.99944	679.94525	-934.98090	
2660	26.590	-686.42670	30.50340	-565.56256	728.21497	34.84847	-481.24225	-757.39868	-31.33167	651.95233	811.88086	-24.92687	656.24182	22.95846	680.53516	-934.49872	
2661	26.600	-686.94952	31.21464	-565.45233	727.96814	35.10604	-481.03851	-757.58960	-31.63099	652.05383	811.68103	-25.46288	656.15265	22.87164	681.25452	-934.15491	
2662	26.610	-687.06348	31.56996	-565.35583	727.79919	35.56140	-480.96759	-757.74792	-32.06082	652.03058	811.64191	-26.03878	656.19611	22.63251	681.83783	-933.65216	
2663	26.620	-687.21887	31.92171	-565.25482	727.66895	35.85351	-480.86115	-757.89624	-32.60144	652.16559	811.39435	-26.46301	656.30750	22.87643	682.42706	-933.11145	
2664	26.630	-687.39111	32.23666	-565.15576	727.53546	36.07565	-480.76181	-757.89948	-33.03893	652.31622	811.27057	-26.54415	656.35992	21.61326	682.78198	-933.10602	
2665	26.640	-687.49817	32.44711	-565.09460	727.28864	36.53497	-480.87134	-758.01904	-33.48271	652.45557	810.91522	-26.90429	656.42743	23.06861	683.22363	-932.14954	
2666	26.650	-687.49292	32.50657	-565.02295	727.10504	36.78976	-480.85422	-758.08929	-33.89753	652.51904	810.73126	-27.22874	656.56146	22.01206	684.14880	-932.00708	
2667	26.660	-687.67499	32.77036	-564.83643	726.95660	36.99924	-480.69559	-758.28247	-34.20748	652.44720	810.75507	-27.47108	656.66663	21.32147	684.63269	-931.85150	
2668	26.670	-687.98358	33.37788	-564.67657	726.94006	37.08751	-480.43869	-758.52350	-34.54345	652.57782	810.74194	-27.78632	656.74908	21.12554	685.00238	-931.33093	
2669	26.680	-688.20209	33.76630	-564.55518	726.83398	37.32431	-480.23911	-758.63306	-34.70341	652.72522	810.52679	-28.30163	656.81036	21.07206	685.52295	-930.76727	
2670	26.690	-688.37244	34.17014	-564.46527	726.68378	37.64164	-480.13632	-758.85083	-35.08662	652.78552	810.28558	-28.80555	656.81451	21.03468	686.10046	-930.16522	
2671	26.700	-688.48956	34.38348	-564.49316	726.58832	37.88741	-480.03653	-758.97144	-35.43840	652.77466	810.31439	-29.10842	656.96387	20.80587	686.70166	-929.40094	
2672	26.710	-688.55322	34.59234	-564.39594	726.43445	38.28379	-479.92612	-759.02307	-35.70172	652.88245	810.18982	-29.41716	657.13098	20.51074	687.10022	-929.01190	
2673	26.720	-688.52600	34.80000	-564.33008	726.29437	38.68256	-479.82916	-759.32922	-36.10450	652.94696	810.13910	-29.68359	657.34546	20.55677	687.65192	-928.52008	
2674	26.730	-688.54895	35.25829	-564.20306	726.32239	38.96360	-479.60703	-759.45624	-36.35682	653.05017	809.90491	-29.90284	657.41956	20.51628	688.29761	-928.14844	
2675	26.740	-688.74988	35.78546	-563.99438	726.17816	39.08261	-479.51395	-759.52240	-36.68554	653.13000	809.74060	-30.05873	657.42175	20.55016	688.83032	-927.54517	
2676	26.750	-688.95233	36.29572	-563.82971	726.01593	39.42075	-479.50110	-759.54504	-36.90722	653.26746	809.59967	-30.70240	657.30499	20.77232	689.16669	-927.14984	
2677	26.760	-688.91400	36.42691	-563.75470	725.96875	39.56291	-479.47784	-759.56146	-37.17431	653.30493	809.33130	-31.15834	657.30060	20.34169	689.73523	-926.85547	
2678	26.770	-688.89368	36.53195	-563.71448	725.79364	39.84345	-479.36554	-759.68311	-37.67292	653.19006	809.32721	-31.51767	657.45197	19.82093	690.25085	-926.63580	
2679	26.780	-689.11792	36.73876	-563.61774	725.57037	40.05417	-479.19275	-759.97113	-38.22784	653.19440	809.32294	-31.78310	657.56580	20.73353	690.56342	-926.37030	
2680	26.790	-689.40210	37.03787	-563.49182	725.36664	40.39475	-479.13617	-759.98712	-38.40326	653.35559	809.21210	-31.98614	657.62964	20.55034	690.99493	-925.98273	
2681	26.800	-689.49359	37.25104	-563.43750	725.33698	40.63039	-479.16983	-760.14734	-38.72213	653.36835	809.11304	-32.32730	657.66956	20.58654	691.43408	-925.40332	
2682	26.810	-689.45819	37.48326	-563.35925	725.16718	40.93122	-479.08853	-760.17267	-38.88572	653.51904	809.11530	-32.47924	657.66058	20.19275	691.95465	-924.92334	
2683	26.820	-689.76929	37.95401	-563.28351	725.02679	41.16908	-479.09842	-760.26520	-39.08651	653.59271	809.04932	-32.65551	657.74609	20.00782	692.45074	-924.38934	
2684	26.830	-689.96313	38.33544	-563.17798	724.95117	41.32191	-478.99789	-760.37439	-39.43681	653.55609	808.83966	-33.20160	657.89832	19.88898	692.94434	-924.14453	
2685	26.840	-690.06512	38.67366	-563.10626	724.84515	41.52885	-478.76917	-760.69904	-39.99580	653.55890	808.68774	-33.70951	658.01105	19.64603	693.47772	-923.72156	
2686	26.850	-690.06073	38.97676	-562.97162	724.82214	41.80816	-478.59549	-760.73572	-40.31894	653.66455	808.46143	-34.12086	658.08514	19.43964	693.98199	-923.14752	
2687	26.860	-690.08411	39.15918	-562.83868	724.72443	42.07814	-478.41196	-760.74927	-40.74488	653.81458	808.31982	-34.36901	658.12213	19.26477	694.43011	-922.65955	
2688	26.870	-690.17310	39.48601	-562.70905	724.53784	42.56463	-478.44034	-760.79919	-41.07129	653.87280	808.21423	-34.57914	658.14099	19.39387	694.81537	-921.99036	
2689	26.880	-690.28027	39.76035	-562.56421	724.41351	42.86288	-478.42227	-760.83368	-41.31403	653.90204	808.19226	-34.92017	658.12677	18.99037	695.51129	-921.74530	
2690	26.890	-690.36224	40.08947	-562.51422	724.28278	43.16224	-478.29080	-760.93732	-41.62709	653.90363	808.30133	-35.09846	658.27386	18.94008	696.09467	-921.19299	
2691	26.900	-690.40735	40.30979	-562.62225	724.23987	43.36466	-478.00635	-761.36688	-42.08636	653.99121	808.22607	-35.52995	658.45428	18.61983	696.59247	-921.04614	
